<?xml version="1.0" encoding="utf-8"?>
<!-- Generator: Adobe Illustrator 16.0.4, SVG Export Plug-In . SVG Version: 6.00 Build 0)  -->
<!DOCTYPE svg PUBLIC "-//W3C//DTD SVG 1.1//EN" "http://www.w3.org/Graphics/SVG/1.1/DTD/svg11.dtd">
<svg version="1.1" id="Laag_1" xmlns="http://www.w3.org/2000/svg" xmlns:xlink="http://www.w3.org/1999/xlink" x="0px" y="0px"
	 width="295.314px" height="154.378px" viewBox="0 0 295.314 154.378" enable-background="new 0 0 295.314 154.378"
	 xml:space="preserve">
<path fill="#BFC218" d="M92.782,0.847c1.61-0.678,2.897-1.079,4.667-0.701c0.64,5.22-5.098,9.13-3.211,14.156
	c2.002,5.333,7.509,6.335,11.814,3.237c3.56,3.848,2.686,7.347,8.294,7.192c4.713-0.131,6.123-6.119,12.296-4.663
	c3.237,5.82-3.775,4.372-4.663,8.336c-1.768,7.889,2.854,2.918,6.485,6.425c8.022,7.747-4.979,10.07-2.382,18.973
	c8.313,0.471,20.796,2.356,12.959,11.131c-2.53,2.833-10.039,1.074-5.68,8.312c0.566,0.94,8.981,3.613,10.693,4.874
	c-0.113,6.266-6.066,2.013-9.018,5.622c-3.737,4.567,0.313,8.321,1.574,12.36c-8.105-1.534-8.731,6.664-15.505,6.879
	c-1.701,8.234,6.111,10.401,4.726,18.828c-4.649,0.605-5.021-4.435-5.825-8.024c-8.261-2.497-4.859,8.987-7.94,13.041
	c-2.475-9.959-8.251-9.13-10.16,0.085c-1.295,6.247,1.95,17.551-5.681,20.441c-0.303-5.895,1.86-17.812-4.251-21.495
	c-9.95-5.995-4.901,10.111-13.994,9.222c1.111-6.493-5.996-5.402-10.036-4.101c-10.44-12.052-15.411,18.224-22.409,23.401
	c-10.007-7.354,18.131-26.41,7.458-37.626c-14.941-15.702-18.646,16.054-31.411,13.35c-2.916-11.8,15.687-11.879,12.292-24.567
	c-2.877-10.75-10.924-7.67-19.884-4.938c-3.678,1.122-10.845,4.521-13.307-0.185c-3.351-6.405,6.54-5.169,9.992-5.848
	c2.96-0.583,12.575-1.786,13.974-5.164c2.516-6.07-4.737-6.936-8.891-6.592c1.254-3.461,5.722-4.982,8.309-7.363
	c-4.759-3.991-12.07-3.067-18.245-3.4c-0.665-1.301-1.036-4.125-0.804-5.535c6.275-2.533,12.444,0.649,18.8-0.268
	c-0.592-2.799-4.897-4.915-3.871-8.21c0.78-2.503,6.167-2.067,7.542-3.879c3.856-5.087-0.657-11.153,5.313-15.82
	c-3.921-2.273-15.044-11.229-9.517-16.542c4.019-3.863,10.243,8.098,17.123,7.128c0.408-2.003-0.082-9.076,1.08-10.469
	c4.265-5.114,5.599-0.012,8.979-0.372c5.702-0.607,4.608,0.276,7.48-4.794c1.843-3.255-1.963-7.384,4.027-7.333
	c-0.054,5.598,1.432,13.852,8.274,13.842c1.405-3.938-0.513-10.062,2.86-12.976c5.716-4.941,4.781,1.305,7.257,3.938
	c2.255,2.397,3.234,8.784,8.062,3.152C91.143,10.74,90.162,4.466,92.782,0.847z"/>
<path fill="#010202" d="M111.647,36.785c0,0-34.667-4-41.667-2.333s-15.667,3.333-17,9.667s7,17.667,14.333,21.667
	s25,16.667,26.667,19.333s7.667,7-1,13.667s-14.333,6.667-22.333,7.333s-15.667,3-9,3.667s19.333-1.667,19.333-1.667
	s17.667-3.333,22-8.667s6.334-7.333,3.667-15s-10-10.667-16.667-16s-13.333-7.667-17.333-14.333s0.333-8.667,4-9.333
	s34.333,1.667,34.333,1.667L111.647,36.785z"/>
<polygon fill="#FFFFFF" points="120.314,38.119 117.647,94.452 176.98,99.119 177.647,89.119 128.314,84.119 130.314,38.785 "/>
<polygon fill="#FFFFFF" points="187.314,71.452 195.98,71.785 194.647,99.452 185.647,99.785 "/>
<polygon fill="#FFFFFF" points="188.314,48.119 197.314,48.785 196.98,64.119 187.98,63.452 "/>
<polygon fill="#FFFFFF" points="200.981,138.452 206.314,44.785 215.647,45.119 248.981,74.452 285.314,50.452 295.314,51.119 
	290.981,108.452 281.647,108.119 284.314,67.785 247.647,91.452 214.647,62.119 210.314,138.785 "/>
</svg>
