<?xml version="1.0" encoding="utf-8"?>
<!-- Generator: Adobe Illustrator 16.0.4, SVG Export Plug-In . SVG Version: 6.00 Build 0)  -->
<!DOCTYPE svg PUBLIC "-//W3C//DTD SVG 1.1//EN" "http://www.w3.org/Graphics/SVG/1.1/DTD/svg11.dtd">
<svg version="1.1" id="Laag_1" xmlns="http://www.w3.org/2000/svg" xmlns:xlink="http://www.w3.org/1999/xlink" x="0px" y="0px"
	 width="75px" height="75px" viewBox="0 0 75 75" enable-background="new 0 0 75 75" xml:space="preserve">
<path fill="#FFFFFF" d="M48.836,0.378c0.78-0.33,1.405-0.523,2.265-0.34c0.311,2.533-2.474,4.43-1.559,6.869
	c0.972,2.588,3.644,3.075,5.733,1.571c1.728,1.868,1.303,3.565,4.024,3.49c2.287-0.063,2.972-2.969,5.968-2.263
	c1.571,2.825-1.833,2.122-2.263,4.046c-0.858,3.828,1.385,1.416,3.147,3.118c3.893,3.759-2.417,4.886-1.156,9.207
	c4.033,0.229,10.092,1.144,6.288,5.402c-1.228,1.375-4.871,0.521-2.756,4.033c0.274,0.457,4.358,1.754,5.189,2.366
	c-0.055,3.041-2.944,0.977-4.377,2.728c-1.813,2.217,0.152,4.038,0.765,5.999c-3.934-0.744-4.237,3.233-7.524,3.338
	c-0.826,3.996,2.965,5.048,2.293,9.137c-2.256,0.295-2.437-2.152-2.826-3.894c-4.01-1.212-2.358,4.361-3.854,6.328
	c-1.201-4.833-4.005-4.431-4.932,0.042c-0.627,3.031,0.947,8.517-2.756,9.919c-0.147-2.86,0.902-8.645-2.063-10.431
	c-4.828-2.909-2.379,4.906-6.791,4.476c0.54-3.151-2.909-2.623-4.87-1.99c-5.066-5.85-7.479,8.844-10.875,11.355
	c-4.856-3.568,8.799-12.816,3.62-18.259c-7.25-7.621-9.049,7.791-15.243,6.478c-1.415-5.726,7.612-5.764,5.965-11.921
	c-1.396-5.218-5.301-3.723-9.649-2.396c-1.785,0.544-5.263,2.195-6.458-0.09c-1.626-3.107,3.174-2.508,4.849-2.838
	c1.437-0.282,6.103-0.866,6.782-2.506c1.221-2.946-2.299-3.365-4.315-3.198c0.608-1.68,2.777-2.418,4.032-3.574
	c-2.31-1.937-5.858-1.488-8.854-1.65c-0.322-0.631-0.502-2.002-0.39-2.686c3.045-1.229,6.04,0.315,9.124-0.13
	c-0.287-1.358-2.377-2.385-1.878-3.984c0.378-1.215,2.993-1.002,3.659-1.883c1.872-2.468-0.318-5.412,2.579-7.677
	c-1.902-1.103-7.301-5.45-4.618-8.028c1.951-1.875,4.971,3.93,8.31,3.459c0.198-0.972-0.04-4.404,0.524-5.081
	c2.069-2.481,2.717-0.006,4.357-0.18c2.767-0.295,2.236,0.134,3.63-2.327c0.895-1.579-0.953-3.583,1.955-3.559
	C33.859,5.571,34.58,9.577,37.9,9.572c0.682-1.911-0.25-4.883,1.388-6.297c2.773-2.397,2.32,0.633,3.521,1.911
	c1.094,1.164,1.569,4.263,3.913,1.53C48.04,5.179,47.563,2.134,48.836,0.378z"/>
<g>
	<g>
		<g>
			<defs>
				<rect id="SVGID_1_" x="28.673" y="22.825" width="24.28" height="24.366"/>
			</defs>
			<clipPath id="SVGID_2_">
				<use xlink:href="#SVGID_1_"  overflow="visible"/>
			</clipPath>
			<path clip-path="url(#SVGID_2_)" fill="#020202" d="M52.122,41.755l-3.704-3.706c-0.738-0.734-1.958-0.712-2.723,0.052
				l-1.865,1.866c-0.119-0.064-0.24-0.133-0.369-0.205c-1.18-0.653-2.792-1.547-4.49-3.246c-1.702-1.704-2.599-3.319-3.252-4.499
				c-0.07-0.124-0.137-0.244-0.201-0.359l1.252-1.25l0.617-0.616c0.763-0.766,0.787-1.987,0.05-2.723l-3.706-3.706
				c-0.734-0.737-1.957-0.714-2.723,0.052l-1.042,1.049l0.026,0.028c-0.35,0.447-0.642,0.963-0.858,1.517
				c-0.201,0.53-0.327,1.035-0.382,1.539c-0.491,4.055,1.363,7.761,6.391,12.791c6.952,6.95,12.555,6.427,12.797,6.4
				c0.525-0.062,1.03-0.189,1.543-0.388c0.551-0.215,1.066-0.507,1.511-0.856l0.022,0.021l1.06-1.037
				C52.836,43.714,52.858,42.493,52.122,41.755L52.122,41.755z"/>
		</g>
	</g>
</g>
</svg>
