<?xml version="1.0" encoding="utf-8"?>
<!-- Generator: Adobe Illustrator 16.0.4, SVG Export Plug-In . SVG Version: 6.00 Build 0)  -->
<!DOCTYPE svg PUBLIC "-//W3C//DTD SVG 1.1//EN" "http://www.w3.org/Graphics/SVG/1.1/DTD/svg11.dtd">
<svg version="1.1" id="Laag_1" xmlns="http://www.w3.org/2000/svg" xmlns:xlink="http://www.w3.org/1999/xlink" x="0px" y="0px"
	 width="540.221px" height="533.471px" viewBox="181.21 179.662 540.221 533.471"
	 enable-background="new 181.21 179.662 540.221 533.471" xml:space="preserve">
<path fill="#BFC218" d="M499.655,182.568c5.523-2.327,9.941-3.702,16.015-2.407c2.199,17.917-17.493,31.335-11.021,48.585
	c6.871,18.303,25.774,21.745,40.55,11.109c12.218,13.208,9.217,25.218,28.467,24.685c16.178-0.45,21.016-21.001,42.204-16.006
	c11.109,19.979-12.96,15.005-16.007,28.614c-6.066,27.076,9.799,10.016,22.26,22.051c27.535,26.589-17.088,34.563-8.174,65.118
	c28.531,1.616,71.375,8.087,44.479,38.205c-8.685,9.726-34.456,3.687-19.494,28.53c1.941,3.228,30.824,12.402,36.701,16.729
	c-0.39,21.507-20.821,6.908-30.953,19.295c-12.825,15.676,1.074,28.559,5.401,42.424c-27.82-5.264-29.967,22.875-53.215,23.613
	c-5.838,28.262,20.973,35.697,16.22,64.619c-15.957,2.079-17.234-15.22-19.992-27.539c-28.354-8.57-16.681,30.847-27.255,44.758
	c-8.494-34.184-28.319-31.335-34.872,0.29c-4.442,21.442,6.694,60.241-19.497,70.159c-1.041-20.232,6.382-61.138-14.591-73.775
	c-34.15-20.575-16.824,34.703-48.031,31.65c3.815-22.287-20.578-18.54-34.443-14.073c-35.834-41.364-52.896,62.549-76.913,80.317
	c-34.346-25.241,62.23-90.646,25.6-129.141c-51.281-53.892-63.999,55.102-107.81,45.819c-10.007-40.501,53.84-40.77,42.187-84.318
	c-9.873-36.896-37.494-26.326-68.247-16.947c-12.625,3.85-37.222,15.52-45.671-0.634c-11.5-21.983,22.447-17.742,34.295-20.073
	c10.16-1.999,43.157-6.127,47.96-17.719c8.633-20.837-16.259-23.806-30.517-22.627c4.302-11.879,19.64-17.1,28.517-25.27
	c-16.335-13.698-41.43-10.528-62.62-11.67c-2.282-4.464-3.557-14.16-2.76-18.998c21.536-8.694,42.71,2.229,64.523-0.919
	c-2.032-9.609-16.809-16.87-13.286-28.182c2.675-8.592,21.167-7.092,25.882-13.315c13.237-17.46-2.253-38.277,18.239-54.296
	c-13.458-7.803-51.637-38.542-32.665-56.777c13.795-13.256,35.159,27.792,58.77,24.467c1.401-6.875-0.28-31.152,3.708-35.932
	c14.636-17.553,19.216-0.042,30.817-1.277c19.569-2.085,15.816,0.949,25.675-16.457c6.326-11.171-6.738-25.342,13.823-25.168
	c-0.184,19.213,4.915,47.542,28.397,47.511c4.823-13.517-1.761-34.532,9.817-44.537c19.619-16.958,16.408,4.477,24.909,13.517
	c7.738,8.228,11.1,30.148,27.67,10.819C494.029,216.522,490.66,194.992,499.655,182.568z"/>
<path fill="#99B900" d="M569.2,257.292c4.778-2.013,8.602-3.203,13.854-2.082c1.901,15.499-15.134,27.107-9.534,42.029
	c5.944,15.833,22.297,18.811,35.078,9.611c10.568,11.425,7.974,21.814,24.625,21.353c13.993-0.389,18.18-18.166,36.509-13.846
	c9.61,17.282-11.212,12.98-13.847,24.752c-5.248,23.422,8.477,8.665,19.256,19.075c23.819,23.001-14.781,29.899-7.071,56.331
	c24.682,1.399,61.744,6.996,38.478,33.049c-7.512,8.413-29.806,3.19-16.864,24.681c1.68,2.793,26.666,10.728,31.748,14.472
	c-0.336,18.604-18.011,5.976-26.776,16.691c-11.093,13.561,0.932,24.704,4.674,36.698c-24.065-4.554-25.923,19.788-46.034,20.427
	c-5.05,24.448,18.143,30.879,14.032,55.899c-13.805,1.798-14.909-13.166-17.296-23.823c-24.526-7.412-14.429,26.685-23.576,38.718
	c-7.348-29.57-24.497-27.106-30.166,0.252c-3.844,18.549,5.79,52.112-16.867,60.692c-0.899-17.504,5.521-52.888-12.622-63.82
	c-29.541-17.798-14.553,30.021-41.549,27.379c3.3-19.279-17.801-16.038-29.796-12.174c-30.997-35.782-45.757,54.108-66.533,69.478
	c-29.711-21.833,53.832-78.412,22.146-111.713c-44.362-46.619-55.363,47.667-93.262,39.637
	c-8.656-35.036,46.575-35.269,36.494-72.94c-8.54-31.916-32.434-22.772-59.037-14.66c-10.921,3.33-32.2,13.427-39.509-0.547
	c-9.947-19.019,19.418-15.348,29.667-17.364c8.789-1.731,37.334-5.302,41.489-15.329c7.467-18.024-14.065-20.594-26.398-19.574
	c3.723-10.275,16.989-14.792,24.668-21.86c-14.131-11.85-35.839-9.106-54.17-10.096c-1.974-3.861-3.077-12.248-2.388-16.434
	c18.628-7.521,36.947,1.929,55.817-0.795c-1.758-8.312-14.54-14.593-11.493-24.378c2.314-7.433,18.311-6.135,22.391-11.518
	c11.45-15.105-1.951-33.113,15.777-46.97c-11.642-6.75-44.669-33.34-28.256-49.115c11.933-11.468,30.414,24.041,50.839,21.165
	c1.212-5.947-0.243-26.949,3.208-31.083c12.66-15.183,16.622-0.037,26.657-1.104c16.929-1.804,13.683,0.822,22.211-14.236
	c5.472-9.663-5.829-21.922,11.958-21.772c-0.16,16.62,4.252,41.126,24.565,41.099c4.172-11.692-1.523-29.873,8.492-38.527
	c16.973-14.67,14.193,3.873,21.548,11.693c6.692,7.118,9.602,26.079,23.936,9.359C564.334,286.664,561.421,268.04,569.2,257.292z"/>
<path fill="#E0D405" d="M562.449,183.934c4.779-2.013,8.602-3.203,13.854-2.082c1.902,15.499-15.134,27.107-9.534,42.029
	c5.945,15.833,22.297,18.811,35.078,9.61c10.569,11.425,7.974,21.814,24.626,21.354c13.993-0.39,18.179-18.166,36.508-13.846
	c9.61,17.282-11.212,12.98-13.847,24.752c-5.247,23.422,8.478,8.665,19.256,19.076c23.82,23-14.781,29.899-7.071,56.33
	c24.682,1.399,61.745,6.996,38.478,33.049c-7.512,8.413-29.806,3.189-16.863,24.68c1.68,2.792,26.665,10.728,31.747,14.471
	c-0.336,18.604-18.01,5.977-26.774,16.691c-11.094,13.561,0.93,24.705,4.673,36.699c-24.066-4.554-25.924,19.788-46.035,20.427
	c-5.049,24.448,18.143,30.879,14.032,55.899c-13.804,1.798-14.909-13.166-17.295-23.823c-24.527-7.413-14.43,26.684-23.577,38.718
	c-7.348-29.57-24.497-27.106-30.166,0.252c-3.844,18.549,5.791,52.112-16.866,60.691c-0.9-17.503,5.521-52.887-12.622-63.819
	c-29.542-17.798-14.554,30.021-41.55,27.379c3.301-19.279-17.802-16.038-29.795-12.174c-30.998-35.782-45.758,54.108-66.534,69.478
	c-29.711-21.833,53.833-78.412,22.146-111.713c-44.361-46.619-55.363,47.666-93.262,39.637
	c-8.656-35.037,46.574-35.269,36.493-72.94c-8.539-31.916-32.434-22.773-59.037-14.66c-10.921,3.331-32.2,13.426-39.508-0.547
	c-9.947-19.017,19.418-15.348,29.667-17.364c8.789-1.731,37.334-5.302,41.489-15.33c7.467-18.024-14.065-20.593-26.398-19.573
	c3.722-10.275,16.989-14.792,24.668-21.86c-14.13-11.849-35.839-9.107-54.169-10.096c-1.974-3.861-3.077-12.248-2.388-16.434
	c18.629-7.52,36.947,1.929,55.817-0.794c-1.758-8.312-14.54-14.593-11.493-24.379c2.314-7.434,18.311-6.135,22.39-11.518
	c11.451-15.105-1.949-33.113,15.778-46.97c-11.642-6.75-44.669-33.34-28.257-49.115c11.934-11.468,30.415,24.042,50.84,21.166
	c1.212-5.947-0.243-26.949,3.207-31.083c12.661-15.184,16.623-0.037,26.658-1.104c16.929-1.804,13.683,0.822,22.211-14.235
	c5.473-9.664-5.829-21.923,11.957-21.772c-0.159,16.62,4.253,41.126,24.565,41.099c4.172-11.692-1.523-29.873,8.493-38.527
	c16.972-14.67,14.193,3.873,21.547,11.692c6.693,7.118,9.602,26.079,23.937,9.359C557.584,213.306,554.67,194.681,562.449,183.934z"
	/>
</svg>
